# Blender v2.79 (sub 0) OBJ File: ''
# www.blender.org
mtllib MyObj1.mtl
o Cone
v 0.210538 1.036314 -0.961883
v 0.405629 1.036314 -0.942668
v 0.593222 1.036314 -0.885762
v 0.766109 1.036314 -0.793352
v 0.917645 1.036314 -0.668989
v 1.042008 1.036314 -0.517453
v 1.134418 1.036314 -0.344566
v 1.191324 1.036314 -0.156973
v 1.210538 1.036314 0.038117
v 1.191324 1.036314 0.233208
v 1.134418 1.036314 0.420801
v 1.042008 1.036314 0.593688
v 0.917645 1.036314 0.745224
v 0.766109 1.036314 0.869587
v 0.593222 1.036314 0.961997
v 0.405628 1.036314 1.018903
v 0.210538 1.036314 1.038117
v 0.015448 1.036314 1.018903
v -0.172146 1.036314 0.961997
v -0.345032 1.036314 0.869587
v -0.496569 1.036314 0.745224
v -0.620932 1.036314 0.593687
v -0.713341 1.036314 0.420800
v 0.210538 3.036314 0.038117
v -0.770247 1.036314 0.233207
v -0.789462 1.036314 0.038116
v -0.770247 1.036314 -0.156974
v -0.713341 1.036314 -0.344567
v -0.620931 1.036314 -0.517454
v -0.496568 1.036314 -0.668990
v -0.345031 1.036314 -0.793353
v -0.172144 1.036314 -0.885763
v 0.015450 1.036314 -0.942668
vn 0.0878 0.4455 -0.8910
vn 0.2599 0.4455 -0.8567
vn 0.4220 0.4455 -0.7896
vn 0.5680 0.4455 -0.6921
vn 0.6921 0.4455 -0.5680
vn 0.7896 0.4455 -0.4220
vn 0.8567 0.4455 -0.2599
vn 0.8910 0.4455 -0.0878
vn 0.8910 0.4455 0.0878
vn 0.8567 0.4455 0.2599
vn 0.7896 0.4455 0.4220
vn 0.6921 0.4455 0.5680
vn 0.5680 0.4455 0.6921
vn 0.4220 0.4455 0.7896
vn 0.2599 0.4455 0.8567
vn 0.0878 0.4455 0.8910
vn -0.0878 0.4455 0.8910
vn -0.2599 0.4455 0.8567
vn -0.4220 0.4455 0.7896
vn -0.5680 0.4455 0.6921
vn -0.6921 0.4455 0.5680
vn -0.7896 0.4455 0.4220
vn -0.8567 0.4455 0.2599
vn -0.8910 0.4455 0.0878
vn -0.8910 0.4455 -0.0878
vn -0.8567 0.4455 -0.2599
vn -0.7896 0.4455 -0.4220
vn -0.6921 0.4455 -0.5680
vn -0.5680 0.4455 -0.6921
vn -0.4220 0.4455 -0.7896
vn -0.2599 0.4455 -0.8567
vn -0.0878 0.4455 -0.8910
vn 0.0000 -1.0000 -0.0000
usemtl None
s off
f 1//1 24//1 2//1
f 2//2 24//2 3//2
f 3//3 24//3 4//3
f 4//4 24//4 5//4
f 5//5 24//5 6//5
f 6//6 24//6 7//6
f 7//7 24//7 8//7
f 8//8 24//8 9//8
f 9//9 24//9 10//9
f 10//10 24//10 11//10
f 11//11 24//11 12//11
f 12//12 24//12 13//12
f 13//13 24//13 14//13
f 14//14 24//14 15//14
f 15//15 24//15 16//15
f 16//16 24//16 17//16
f 17//17 24//17 18//17
f 18//18 24//18 19//18
f 19//19 24//19 20//19
f 20//20 24//20 21//20
f 21//21 24//21 22//21
f 22//22 24//22 23//22
f 23//23 24//23 25//23
f 25//24 24//24 26//24
f 26//25 24//25 27//25
f 27//26 24//26 28//26
f 28//27 24//27 29//27
f 29//28 24//28 30//28
f 30//29 24//29 31//29
f 31//30 24//30 32//30
f 32//31 24//31 33//31
f 33//32 24//32 1//32
f 1//33 2//33 3//33 4//33 5//33 6//33 7//33 8//33 9//33 10//33 11//33 12//33 13//33 14//33 15//33 16//33 17//33 18//33 19//33 20//33 21//33 22//33 23//33 25//33 26//33 27//33 28//33 29//33 30//33 31//33 32//33 33//33
o Circle
v 1.813493 1.107382 3.572181
v 2.344784 1.096335 3.531525
v 2.857857 1.081586 3.388057
v 3.332996 1.063703 3.147292
v 3.751941 1.043373 2.818482
v 4.098593 1.021376 2.414262
v 4.359629 0.998559 1.950168
v 4.525019 0.975798 1.444032
v 4.588406 0.953968 0.915308
v 4.547355 0.933908 0.384312
v 4.403442 0.916388 -0.128550
v 4.162201 0.902082 -0.603568
v 3.832899 0.891540 -1.022488
v 3.428192 0.885167 -1.369210
v 2.963633 0.883208 -1.630411
v 2.457075 0.885738 -1.796053
v 1.927984 0.892659 -1.859770
v 1.396693 0.903707 -1.819113
v 0.883620 0.918456 -1.675645
v 0.408481 0.936339 -1.434880
v -0.010464 0.956669 -1.106069
v -0.357116 0.978666 -0.701849
v -0.618152 1.001483 -0.237754
v -0.783541 1.024244 0.268381
v -0.846928 1.046074 0.797107
v -0.805876 1.066134 1.328103
v -0.661964 1.083654 1.840964
v -0.420721 1.097960 2.315982
v -0.091418 1.108501 2.734901
v 0.313289 1.114874 3.081624
v 0.777848 1.116834 3.342824
v 1.284407 1.114304 3.508465
l 35 34
l 36 35
l 37 36
l 38 37
l 39 38
l 40 39
l 41 40
l 42 41
l 43 42
l 44 43
l 45 44
l 46 45
l 47 46
l 48 47
l 49 48
l 50 49
l 51 50
l 52 51
l 53 52
l 54 53
l 55 54
l 56 55
l 57 56
l 58 57
l 59 58
l 60 59
l 61 60
l 62 61
l 63 62
l 64 63
l 65 64
l 34 65
o Cube
v 1.038237 -1.008103 -1.076582
v 1.038237 -1.008103 0.923418
v -0.961763 -1.008103 0.923418
v -0.961763 -1.008103 -1.076582
v 1.038237 0.991897 -1.076581
v 1.038236 0.991897 0.923419
v -0.961764 0.991897 0.923418
v -0.961763 0.991897 -1.076582
vn 0.0000 -1.0000 0.0000
vn 0.0000 1.0000 0.0000
vn 1.0000 -0.0000 0.0000
vn -0.0000 -0.0000 1.0000
vn -1.0000 -0.0000 -0.0000
vn 0.0000 0.0000 -1.0000
usemtl Material
s off
f 66//34 67//34 68//34 69//34
f 70//35 73//35 72//35 71//35
f 66//36 70//36 71//36 67//36
f 67//37 71//37 72//37 68//37
f 68//38 72//38 73//38 69//38
f 70//39 66//39 69//39 73//39
